<svg xmlns="http://www.w3.org/2000/svg" width="1024" height="1024" viewBox="0 0 1024 1024">
<g>
<path d="M 558.00 765.93 C527.22,767.89 477.65,767.47 456.50,765.07 C451.00,764.45 439.52,763.27 431.00,762.44 C408.89,760.31 403.19,759.54 388.00,756.62 C360.76,751.38 354.94,750.07 345.55,747.07 C340.29,745.38 335.41,744.00 334.71,744.00 C332.06,744.00 319.10,737.06 318.03,735.06 C316.89,732.92 317.04,731.24 319.58,718.00 C322.51,702.74 323.81,697.10 325.14,693.76 C326.37,690.69 328.01,690.75 335.50,694.14 C337.70,695.14 340.33,695.97 341.35,695.98 C342.37,695.99 344.62,696.61 346.35,697.36 C348.08,698.11 350.85,699.30 352.50,700.01 C354.15,700.72 357.30,701.65 359.50,702.07 C361.70,702.50 365.30,703.33 367.50,703.93 C376.56,706.36 404.97,711.45 415.00,712.44 C422.59,713.18 428.15,713.94 437.50,715.50 C444.57,716.69 453.75,717.40 490.89,719.64 C496.71,719.99 499.76,720.53 498.90,721.06 C498.14,721.53 496.45,721.65 495.15,721.32 C492.95,720.77 491.06,722.13 491.02,724.30 C490.98,726.07 497.73,727.94 500.88,727.03 C502.60,726.54 504.00,726.45 503.99,726.82 C503.99,727.19 500.84,730.37 496.99,733.87 C493.15,737.38 490.00,740.83 490.00,741.54 C490.00,743.17 510.04,761.98 511.78,761.99 C513.27,762.00 535.00,744.09 535.00,742.85 C535.00,742.40 533.31,740.44 531.25,738.50 C527.54,735.01 527.53,734.98 530.23,735.42 C531.73,735.66 533.97,736.57 535.20,737.43 C538.14,739.48 539.83,739.41 547.28,736.92 C553.65,734.80 562.54,729.75 564.72,727.02 C565.39,726.19 565.95,723.81 565.97,721.75 C566.00,718.18 566.16,718.00 569.32,718.00 C579.58,718.00 647.79,707.85 657.40,704.89 C658.99,704.40 661.34,704.00 662.61,704.00 C665.18,704.00 671.24,702.12 680.85,698.35 C684.34,696.98 687.41,696.08 687.68,696.34 C687.94,696.61 689.74,696.17 691.68,695.36 C694.80,694.06 695.45,694.07 697.59,695.47 C699.18,696.51 700.00,697.99 700.00,699.82 C700.00,701.35 700.41,703.03 700.92,703.55 C701.42,704.07 701.95,706.30 702.10,708.50 C702.24,710.70 702.73,713.25 703.18,714.18 C703.63,715.10 704.18,717.57 704.42,719.68 C704.65,721.78 705.32,725.30 705.90,727.50 C707.88,735.02 707.42,736.93 703.25,738.60 C698.46,740.51 694.93,742.02 692.88,743.05 C689.35,744.81 652.92,754.55 646.00,755.57 C644.08,755.85 639.12,756.72 635.00,757.49 C630.88,758.26 623.22,759.39 618.00,759.99 C612.78,760.60 605.94,761.54 602.80,762.09 C596.79,763.13 582.01,764.40 558.00,765.93 ZM 346.09 557.01 L 343.95 557.54 C331.90,560.51 329.35,561.14 329.16,560.72 C329.11,560.61 329.23,560.42 329.39,560.18 C329.42,560.13 329.45,560.08 329.49,560.02 C329.82,559.49 326.21,545.42 321.47,528.77 C313.28,500.01 301.31,453.99 295.53,429.00 C294.06,422.67 292.27,415.02 291.54,412.00 C290.82,408.98 289.64,403.16 288.92,399.07 C288.20,394.99 287.44,392.18 287.22,392.83 C287.01,393.48 286.47,393.79 286.02,393.51 C284.74,392.72 283.83,399.66 284.41,405.84 C284.71,409.02 284.09,406.89 283.00,401.00 C281.94,395.23 281.05,389.26 281.04,387.75 C281.00,385.30 280.63,385.00 277.63,385.00 C272.85,385.00 266.34,382.49 261.53,378.80 C257.71,375.87 252.18,369.76 254.83,371.39 C256.22,372.25 256.34,371.08 255.06,369.07 C253.49,366.58 260.33,359.38 266.08,357.47 C268.80,356.57 270.76,355.42 270.45,354.92 C269.60,353.54 270.67,353.79 274.95,355.97 C277.08,357.06 280.65,358.24 282.90,358.60 C286.78,359.22 288.54,360.28 293.75,365.12 C295.72,366.95 296.79,371.98 296.12,376.25 C296.05,376.66 296.56,377.01 297.25,377.02 C297.94,377.03 297.43,377.87 296.13,378.87 C293.82,380.65 293.80,380.77 295.49,383.35 C296.45,384.81 296.98,386.00 296.67,386.00 C295.60,386.00 312.76,412.69 335.89,447.00 C375.30,505.47 402.27,546.07 401.87,546.37 C401.67,546.52 392.68,548.08 381.90,549.83 C371.12,551.58 355.00,554.81 346.09,557.01 ZM 357.05 629.53 C350.21,631.44 344.13,632.95 343.55,632.88 C342.97,632.82 343.31,632.56 344.31,632.30 C344.70,632.20 345.02,632.14 345.25,631.96 C346.29,631.14 345.41,627.88 339.91,607.43 L 339.39 605.50 C336.43,594.50 334.01,584.70 334.00,583.73 C334.00,581.70 335.74,580.93 347.85,577.59 C365.76,572.65 391.93,567.93 415.00,565.46 C422.42,564.67 429.40,564.05 430.50,564.08 L 432.50 564.14 L 430.50 565.00 C429.40,565.47 427.15,565.94 425.50,566.05 C423.85,566.15 423.26,566.43 424.18,566.68 C425.58,567.05 425.37,567.58 422.94,569.91 C421.34,571.44 420.29,572.95 420.60,573.27 C422.03,574.70 417.89,573.21 416.22,571.70 C413.77,569.48 412.38,569.51 414.10,571.75 C414.84,572.71 414.29,572.48 412.89,571.23 C410.47,569.09 410.26,569.06 408.87,570.73 C405.76,574.46 401.95,581.11 402.45,581.92 C402.74,582.39 401.18,585.02 398.99,587.78 C396.79,590.53 395.00,593.25 395.00,593.81 C395.00,594.37 397.14,596.74 399.75,599.08 C402.36,601.41 403.83,602.96 403.00,602.50 C402.17,602.05 402.62,602.80 404.00,604.16 C405.38,605.52 406.84,606.46 407.25,606.26 C407.66,606.05 408.00,606.47 408.00,607.19 C408.00,607.91 409.35,609.40 411.00,610.50 C412.65,611.60 414.00,612.84 414.00,613.25 C414.01,616.37 424.66,607.07 429.40,599.81 C430.40,598.27 431.74,597.35 432.53,597.65 C434.02,598.22 437.60,608.53 437.16,611.00 C437.02,611.83 436.85,613.03 436.78,613.69 C436.71,614.40 434.04,615.13 430.08,615.50 C411.53,617.26 377.92,623.72 357.05,629.53 ZM 680.13 632.10 C682.32,633.49 680.20,632.98 668.64,629.38 C662.67,627.52 651.65,624.68 644.14,623.08 C636.64,621.48 631.69,620.14 633.14,620.09 C635.88,620.00 637.00,618.42 637.00,614.66 C637.00,613.47 638.11,607.54 639.46,601.49 C640.81,595.45 642.13,589.38 642.39,588.00 C642.65,586.62 643.35,583.05 643.94,580.06 C644.78,575.84 644.74,574.45 643.76,573.83 C643.07,573.39 642.95,573.02 643.50,573.00 C644.05,572.98 643.83,572.53 643.00,572.00 C641.76,571.20 641.84,571.03 643.50,571.02 C649.87,570.97 687.76,580.66 690.32,582.99 C691.02,583.63 683.02,617.92 679.84,627.87 C678.99,630.52 679.06,631.42 680.13,632.10 ZM 428.50 543.58 C421.35,544.35 414.06,544.99 412.29,544.99 L 409.09 545.00 L 428.70 506.25 C439.49,484.94 448.51,467.27 448.75,467.00 C449.67,465.92 447.60,474.70 446.15,478.00 C444.73,481.22 443.81,486.52 444.85,485.48 C445.51,484.82 450.00,489.90 450.00,491.30 C450.00,491.96 451.57,495.65 453.48,499.50 C455.40,503.35 456.97,507.20 456.98,508.05 C456.99,508.90 457.43,510.03 457.97,510.57 C458.50,511.10 459.14,514.29 459.39,517.66 C459.64,521.02 460.40,524.67 461.08,525.76 C461.86,527.00 462.00,528.44 461.46,529.62 C461.00,530.65 460.58,531.95 460.53,532.50 C460.48,533.05 460.20,533.95 459.91,534.50 C458.49,537.13 459.59,539.49 462.50,540.06 C464.28,540.41 460.62,540.96 453.50,541.41 C446.90,541.83 435.65,542.81 428.50,543.58 ZM 696.78 559.41 C696.66,560.83 696.55,561.95 696.53,561.90 C696.30,561.16 676.32,556.08 661.50,552.98 C650.57,550.70 645.11,549.24 648.65,549.55 C655.45,550.13 656.37,549.43 654.66,544.91 C653.84,542.74 654.05,541.87 655.82,539.96 C657.01,538.69 658.26,537.92 658.59,538.26 C658.93,538.60 660.91,537.19 662.99,535.12 C668.25,529.92 675.45,524.98 683.78,520.87 C686.14,519.70 688.48,517.96 689.00,517.00 C689.52,516.04 691.86,514.32 694.22,513.17 C697.93,511.37 706.32,504.09 709.55,499.87 C710.13,499.12 711.65,495.22 712.93,491.22 C714.22,487.21 715.42,484.09 715.61,484.28 C716.06,484.72 702.68,538.06 699.47,548.66 C698.11,553.14 696.90,557.98 696.78,559.41 ZM 487.50 706.96 L 493.50 708.89 L 480.92 708.95 C474.00,708.98 468.15,708.82 467.92,708.59 C467.69,708.37 463.23,707.89 458.00,707.52 C440.43,706.30 407.56,701.24 400.00,698.60 C397.52,697.74 394.29,697.02 392.81,697.01 C391.33,697.01 389.84,696.55 389.50,696.00 C389.16,695.45 387.90,694.99 386.69,694.98 C385.49,694.97 383.38,694.09 382.01,693.04 C379.75,691.31 379.68,691.06 381.30,690.44 C383.20,689.71 383.29,689.72 406.50,692.94 C414.75,694.08 426.45,695.47 432.50,696.01 C438.55,696.55 447.75,697.46 452.95,698.03 C458.15,698.59 467.15,699.31 472.95,699.63 C478.75,699.94 483.66,700.35 483.85,700.53 C484.04,700.71 482.37,701.41 480.13,702.08 C475.93,703.34 475.47,704.99 479.31,705.01 C480.51,705.02 484.20,705.90 487.50,706.96 ZM 608.45 751.73 C611.28,754.81 613.32,754.56 616.33,750.75 C617.74,748.96 621.17,745.05 623.95,742.05 C626.73,739.06 629.00,736.26 629.00,735.85 C629.00,734.44 617.59,724.00 616.06,724.00 C615.51,724.00 614.06,722.65 612.84,721.00 C610.02,717.18 608.69,717.22 605.83,721.25 C604.57,723.04 601.17,727.29 598.28,730.70 C595.39,734.12 593.25,737.49 593.53,738.20 C593.81,738.92 596.82,741.75 600.22,744.50 C603.62,747.25 607.33,750.50 608.45,751.73 ZM 403.67 744.99 C407.89,749.39 411.78,753.00 412.32,753.00 C413.17,753.00 418.04,749.32 424.50,743.79 C425.60,742.85 427.35,741.46 428.40,740.70 C429.74,739.72 430.12,738.61 429.69,736.91 C428.94,733.92 416.36,720.00 414.42,720.00 C412.17,720.00 396.14,733.31 396.07,735.24 C396.03,736.19 399.45,740.58 403.67,744.99 ZM 369.96 645.43 C364.20,646.74 358.26,648.13 356.75,648.51 C353.66,649.30 353.46,648.94 355.25,645.74 C355.94,644.51 356.53,643.39 356.57,643.26 C356.61,643.13 361.79,641.67 368.07,640.01 C383.49,635.95 406.80,631.42 421.97,629.54 C434.71,627.97 438.85,627.73 433.50,628.88 L 430.50 629.53 L 435.24 631.77 C438.56,633.33 442.00,634.03 446.74,634.11 C451.04,634.18 444.95,635.07 430.00,636.55 C404.01,639.14 385.77,641.84 369.96,645.43 ZM 478.22 673.05 C476.69,674.84 475.29,674.99 461.03,674.84 C452.49,674.75 443.92,674.53 442.00,674.34 C421.96,672.42 382.90,666.58 378.75,664.88 C377.24,664.26 376.00,663.14 376.00,662.38 C376.00,660.72 380.79,660.58 389.50,661.98 C404.41,664.37 444.96,668.69 460.00,669.48 C466.33,669.81 473.39,670.31 475.69,670.60 C479.74,671.09 479.83,671.17 478.22,673.05 ZM 594.00 704.38 C589.33,705.22 580.55,706.15 574.50,706.45 C563.69,706.97 563.56,706.95 567.25,705.35 C571.41,703.55 572.04,702.08 569.00,701.29 C566.29,700.58 566.46,699.00 569.25,698.98 C571.68,698.97 589.50,697.51 600.00,696.47 C603.58,696.12 611.61,694.97 617.85,693.91 C624.09,692.86 630.28,692.00 631.60,692.00 C635.48,692.00 634.51,694.81 630.36,695.59 C628.36,695.97 624.42,697.15 621.61,698.22 C616.67,700.10 612.12,701.12 594.00,704.38 ZM 668.00 645.12 C668.00,647.54 666.76,647.45 650.50,643.98 C643.35,642.46 631.20,640.39 623.50,639.38 C613.41,638.06 610.34,637.37 612.50,636.89 C614.15,636.53 614.76,636.18 613.87,636.12 C612.97,636.05 612.00,635.11 611.72,634.03 C610.91,630.92 615.88,630.63 629.50,632.98 C643.10,635.33 664.87,640.74 666.75,642.24 C667.44,642.79 668.00,644.09 668.00,645.12 ZM 610.50 670.00 C610.16,670.55 609.49,671.00 609.00,671.00 C607.89,671.00 606.59,669.01 607.69,668.98 C608.14,668.98 607.85,668.56 607.05,668.05 C605.27,666.93 606.36,666.66 621.50,664.57 C632.55,663.05 637.40,663.30 636.71,665.37 C636.25,666.74 624.48,668.86 616.81,668.94 C613.68,668.97 610.84,669.45 610.50,670.00 ZM 594.75 672.36 C591.86,672.70 588.38,673.22 587.00,673.50 C585.49,673.81 584.01,673.44 583.25,672.55 C581.12,670.05 581.85,669.00 585.75,668.99 C587.81,668.99 591.97,668.72 595.00,668.41 C599.04,667.99 600.10,668.12 599.00,668.90 C597.98,669.63 597.90,669.97 598.75,669.98 C599.44,669.99 600.00,670.39 600.00,670.86 C600.00,671.33 597.64,672.01 594.75,672.36 ZM 576.45 672.28 C575.44,674.89 573.08,675.08 570.73,672.73 L 568.50 670.50 L 572.35 670.18 C576.75,669.82 577.28,670.10 576.45,672.28 ZM 508.43 720.89 C508.73,721.37 508.36,722.28 507.61,722.91 C506.54,723.79 506.13,723.60 505.72,722.02 C505.18,719.98 507.32,719.09 508.43,720.89 Z" fill="rgb(172,109,27)"/>
<path d="M 696.78 559.41 C696.90,557.98 698.11,553.14 699.47,548.66 C702.68,538.06 716.06,484.72 715.61,484.28 C715.42,484.09 714.22,487.21 712.93,491.22 C711.65,495.22 710.13,499.12 709.55,499.87 C706.32,504.09 697.93,511.37 694.22,513.17 C691.86,514.32 689.52,516.04 689.00,517.00 C688.48,517.96 686.14,519.70 683.78,520.87 C675.45,524.98 668.25,529.92 662.99,535.12 C660.91,537.19 658.93,538.60 658.59,538.26 C658.26,537.92 657.01,538.69 655.82,539.96 C654.05,541.87 653.84,542.74 654.66,544.91 C656.37,549.43 655.45,550.13 648.65,549.55 C645.11,549.24 650.57,550.70 661.50,552.98 C663.97,553.50 666.59,554.07 669.24,554.67 C643.13,549.18 609.23,544.27 576.29,541.49 C569.91,540.95 567.96,540.43 567.58,539.15 C567.32,538.24 565.25,528.50 563.00,517.50 C550.14,454.69 544.80,426.88 544.66,421.86 C544.57,418.75 544.19,416.40 543.80,416.63 C543.42,416.87 542.80,415.46 542.44,413.52 C541.63,409.19 543.31,406.56 545.97,407.99 C546.94,408.50 548.09,408.61 548.53,408.21 C548.96,407.82 549.04,408.29 548.69,409.25 C548.35,410.21 548.43,411.00 548.87,411.00 C549.56,411.00 553.84,419.65 558.52,430.50 C569.05,454.90 592.23,503.94 594.60,506.80 C596.45,509.05 596.56,509.06 598.50,507.28 C599.60,506.27 602.65,503.48 605.28,501.07 C607.90,498.66 609.79,497.38 609.47,498.22 C608.57,500.57 611.93,501.27 614.87,499.35 C616.29,498.42 621.44,494.25 626.31,490.08 C639.56,478.74 644.26,474.92 644.59,475.25 C644.75,475.42 643.77,482.01 642.41,489.91 C641.05,497.81 640.14,504.48 640.39,504.72 C640.63,504.96 644.70,504.77 649.43,504.28 C657.44,503.46 660.40,503.77 660.01,505.39 C659.92,505.75 660.04,506.60 660.27,507.27 C660.50,507.95 661.94,506.02 663.47,503.00 C673.47,483.24 693.89,446.53 714.11,412.00 C727.45,389.22 731.00,382.82 731.00,381.57 C731.00,380.92 729.03,378.52 726.63,376.23 C724.23,373.94 721.46,370.38 720.48,368.32 C718.33,363.79 717.23,351.59 718.88,350.58 C719.49,350.19 720.00,349.03 720.00,348.00 C720.00,345.44 724.37,340.49 725.84,341.40 C726.48,341.79 727.00,342.77 727.00,343.56 C727.00,344.35 727.45,345.00 728.00,345.00 C728.55,345.00 729.00,345.58 729.00,346.28 C729.00,348.50 740.27,358.69 745.72,361.40 C753.62,365.34 758.47,364.67 766.87,358.51 C768.73,357.15 770.66,356.29 771.16,356.60 C772.73,357.57 771.83,366.29 769.71,370.71 C766.33,377.73 757.55,383.67 749.05,384.68 C743.06,385.39 742.48,386.37 740.49,399.00 C739.67,404.23 738.52,410.91 737.93,413.86 C737.35,416.81 737.12,419.87 737.42,420.66 C737.73,421.46 737.54,421.83 736.99,421.49 C735.91,420.83 735.45,425.63 735.88,433.25 C736.04,436.13 735.72,438.00 735.07,438.00 C734.44,438.00 734.00,440.26 734.00,443.50 C734.00,446.52 733.61,449.00 733.13,449.00 C732.02,449.00 731.01,454.47 730.35,464.00 C730.06,468.12 729.36,472.06 728.80,472.74 C728.23,473.43 728.04,475.00 728.37,476.24 C729.08,478.87 717.58,545.69 713.31,563.75 C712.73,566.22 710.24,566.59 706.00,564.84 C703.34,563.75 700.18,562.63 696.59,561.52 C696.63,561.08 696.70,560.30 696.78,559.41 ZM 387.42 548.92 C395.59,547.57 401.70,546.49 401.87,546.37 C402.19,546.13 384.58,519.48 356.95,478.31 C359.12,481.54 361.11,484.49 362.80,487.00 C377.39,508.70 381.78,514.62 378.61,508.30 C377.72,506.54 377.00,504.46 377.00,503.67 C377.00,502.89 376.33,501.68 375.50,501.00 C373.04,498.96 373.63,495.09 376.58,493.97 C378.40,493.28 379.91,491.23 381.74,487.00 C383.45,483.04 384.90,481.00 386.02,481.00 C388.19,481.00 394.05,484.95 400.70,490.87 C409.15,498.40 413.07,501.34 414.85,501.47 C415.78,501.54 417.09,501.94 417.77,502.36 C420.30,503.92 418.85,501.72 413.92,496.51 L 408.83 491.13 L 412.17 487.36 C414.00,485.29 417.34,481.54 419.59,479.04 C421.84,476.54 425.79,471.80 428.36,468.50 C430.94,465.20 433.61,461.83 434.31,461.00 C435.01,460.17 437.36,456.80 439.53,453.50 C441.70,450.20 444.72,446.02 446.24,444.22 C447.76,442.41 449.00,440.47 449.00,439.91 C449.00,439.34 450.58,436.82 452.50,434.30 C454.42,431.78 456.00,429.13 456.00,428.41 C456.00,427.70 456.82,426.53 457.81,425.81 C459.98,424.24 461.98,421.28 460.07,422.46 C458.65,423.33 463.68,413.89 465.51,412.23 C465.96,411.83 466.00,412.06 465.60,412.75 C465.21,413.44 465.13,414.00 465.43,414.00 C465.73,414.00 467.30,411.41 468.93,408.25 C470.56,405.09 472.82,401.15 473.94,399.50 C475.07,397.85 475.98,396.05 475.98,395.50 C475.97,394.95 475.53,395.17 475.00,396.00 C474.47,396.83 474.02,397.14 474.02,396.70 C473.99,395.58 476.94,390.00 477.56,390.00 C477.84,390.00 477.59,390.90 477.00,392.00 C476.41,393.10 476.18,394.00 476.48,394.00 C476.78,394.00 479.89,388.16 483.38,381.02 C486.87,373.87 490.18,367.46 490.73,366.77 C491.28,366.07 492.02,364.24 492.39,362.71 C492.76,361.17 493.50,360.19 494.03,360.52 C494.56,360.85 495.00,360.28 495.00,359.26 C495.00,358.24 495.47,356.93 496.04,356.36 C498.05,354.35 505.40,332.48 504.69,330.65 C504.44,330.02 501.90,328.68 499.04,327.68 C491.84,325.16 484.88,318.18 482.13,310.71 C479.72,304.17 479.18,293.42 481.25,293.21 C481.94,293.14 483.65,292.80 485.05,292.46 C487.07,291.97 488.62,292.70 492.55,295.99 C498.77,301.21 509.26,306.59 517.09,308.60 C525.02,310.63 532.09,309.27 536.68,304.83 C541.68,299.98 543.75,301.99 543.02,311.00 C542.54,316.91 532.78,327.18 525.86,329.04 C522.06,330.06 522.00,330.15 522.00,334.91 C522.00,339.71 521.98,339.74 518.25,340.36 C516.19,340.70 513.00,340.98 511.16,340.99 C508.79,341.00 507.68,341.52 507.34,342.79 C507.09,343.78 505.95,344.65 504.82,344.74 C503.70,344.82 502.56,345.10 502.31,345.36 C501.47,346.19 504.07,350.08 505.05,349.47 C506.24,348.73 506.24,349.69 505.06,355.70 C502.72,367.58 494.36,415.01 493.02,424.00 C492.40,428.12 491.02,437.29 489.95,444.37 C487.78,458.70 487.67,460.05 488.75,459.88 C493.30,459.16 495.10,460.21 498.04,465.25 C499.72,468.14 504.21,475.00 508.01,480.50 C511.81,486.00 514.94,490.98 514.96,491.57 C514.98,492.16 516.51,494.41 518.36,496.57 C520.20,498.73 522.63,502.30 523.75,504.50 C524.87,506.70 526.74,509.36 527.89,510.40 C529.05,511.45 530.00,512.73 530.00,513.24 C530.00,513.75 532.36,517.50 535.25,521.56 C538.68,526.40 541.37,529.16 543.00,529.54 C544.38,529.86 546.98,530.77 548.78,531.56 C550.59,532.35 553.39,533.00 555.00,533.00 C556.85,533.00 558.30,533.70 558.95,534.90 C560.41,537.64 557.97,538.26 550.85,536.97 C547.61,536.39 544.53,536.17 544.00,536.50 C543.11,537.05 533.86,537.56 480.00,539.99 C467.60,540.55 456.86,541.15 446.90,541.89 C449.34,541.70 451.61,541.53 453.50,541.41 C460.62,540.96 464.28,540.41 462.50,540.06 C459.59,539.49 458.49,537.13 459.91,534.50 C460.20,533.95 460.48,533.05 460.53,532.50 C460.58,531.95 461.00,530.65 461.46,529.62 C462.00,528.44 461.86,527.00 461.08,525.76 C460.40,524.67 459.64,521.02 459.39,517.66 C459.14,514.29 458.50,511.10 457.97,510.57 C457.43,510.03 456.99,508.90 456.98,508.05 C456.97,507.20 455.40,503.35 453.48,499.50 C451.57,495.65 450.00,491.96 450.00,491.30 C450.00,489.90 445.51,484.82 444.85,485.48 C443.81,486.52 444.73,481.22 446.15,478.00 C447.60,474.70 449.67,465.92 448.75,467.00 C448.51,467.27 439.49,484.94 428.70,506.25 L 409.09 545.00 L 412.29 544.99 C413.25,544.99 415.82,544.80 419.11,544.51 C409.00,545.68 398.82,547.12 387.42,548.92 ZM 680.13 632.10 C679.06,631.42 678.99,630.52 679.84,627.87 C683.02,617.92 691.02,583.63 690.32,582.99 C687.76,580.66 649.87,570.97 643.50,571.02 C641.84,571.03 641.76,571.20 643.00,572.00 C643.83,572.53 644.05,572.98 643.50,573.00 C642.95,573.02 643.07,573.39 643.76,573.83 C644.74,574.45 644.78,575.84 643.94,580.06 C643.35,583.05 642.65,586.62 642.39,588.00 C642.13,589.38 640.81,595.45 639.46,601.49 C638.11,607.54 637.00,613.47 637.00,614.66 C637.00,618.42 635.88,620.00 633.14,620.09 C631.69,620.14 636.64,621.48 644.14,623.08 C649.12,624.14 655.66,625.75 661.23,627.25 C640.97,621.95 616.60,617.55 592.50,615.03 C586.45,614.40 579.25,613.48 576.50,612.98 C573.75,612.49 568.91,611.79 565.75,611.43 C562.59,611.07 560.00,610.30 560.00,609.73 C560.00,608.87 564.45,599.01 568.10,591.79 C568.90,590.21 570.41,579.98 571.71,567.25 L 572.25 562.00 L 577.37 562.01 C580.19,562.02 588.80,562.69 596.50,563.51 C613.83,565.35 614.29,565.34 610.10,563.11 C608.24,562.11 607.13,561.04 607.64,560.72 C609.04,559.86 622.35,560.09 623.50,560.99 C624.05,561.43 627.88,562.02 632.00,562.30 C644.61,563.17 683.10,571.22 683.83,573.13 C684.02,573.61 685.46,574.00 687.04,574.00 C688.61,574.00 690.94,574.42 692.20,574.93 C693.47,575.44 695.76,576.13 697.29,576.46 C698.83,576.79 699.81,577.50 699.48,578.03 C699.15,578.56 699.60,579.00 700.48,579.00 C701.36,579.00 703.35,579.94 704.91,581.09 C707.32,582.87 707.70,583.80 707.50,587.34 C707.37,589.63 707.00,592.17 706.68,593.00 C705.03,597.24 703.89,603.74 703.87,609.05 C703.85,612.32 703.42,615.00 702.92,615.00 C702.41,615.00 701.98,617.36 701.96,620.25 C701.93,625.32 699.92,635.70 698.55,637.92 C697.63,639.41 696.52,639.20 688.40,635.95 C685.39,634.74 682.11,633.54 678.61,632.38 C681.22,633.07 681.40,632.90 680.13,632.10 ZM 357.05 629.53 C359.38,628.88 361.86,628.23 364.46,627.57 C352.98,630.60 340.19,634.31 337.05,635.66 L 336.77 635.78 C331.46,638.05 329.83,638.74 328.91,638.21 C328.49,637.96 328.21,637.46 327.81,636.72 C327.13,635.50 326.68,634.13 326.81,633.67 C326.94,633.22 326.56,631.19 325.96,629.17 C325.36,627.15 324.63,623.92 324.34,622.00 C324.05,620.08 323.16,615.80 322.36,612.50 C321.56,609.20 320.74,605.60 320.53,604.50 C320.33,603.40 319.86,601.38 319.50,600.00 C319.14,598.62 318.63,596.15 318.36,594.50 C317.62,589.93 317.21,587.70 316.67,585.41 C316.40,584.27 316.48,582.91 316.84,582.39 C318.00,580.74 322.37,578.44 327.00,577.02 C329.48,576.27 331.93,575.28 332.45,574.83 C332.97,574.37 334.59,574.00 336.05,574.00 C338.42,574.00 342.76,572.90 347.00,571.23 C347.83,570.91 349.29,570.56 350.25,570.46 C354.63,570.00 364.62,567.61 365.71,566.76 C366.37,566.25 367.27,566.05 367.71,566.32 C368.16,566.60 370.54,566.39 373.01,565.87 C375.48,565.35 379.08,564.70 381.00,564.43 C382.92,564.16 385.85,563.52 387.50,563.01 C390.41,562.11 395.73,561.35 405.00,560.49 C407.48,560.26 412.88,559.61 417.00,559.06 C421.12,558.50 429.78,557.55 436.23,556.95 C446.88,555.96 448.23,556.02 450.98,557.65 C452.64,558.63 454.00,559.69 454.00,560.00 C454.00,560.31 461.36,560.38 470.35,560.17 C487.00,559.77 491.00,560.41 491.00,563.50 C491.00,564.28 491.93,565.79 493.08,566.86 C494.40,568.09 494.76,569.03 494.08,569.45 C493.48,569.82 493.00,571.13 493.00,572.36 C493.00,573.59 492.44,575.16 491.75,575.85 C491.06,576.54 490.44,578.31 490.36,579.80 C490.14,583.90 490.10,584.00 488.61,584.00 C487.30,584.00 486.00,586.03 486.00,588.06 C486.00,588.55 487.24,589.61 488.75,590.41 C490.26,591.21 494.05,594.26 497.18,597.19 C500.30,600.11 503.90,603.31 505.18,604.31 C506.45,605.31 506.94,605.84 506.25,605.50 C505.56,605.16 505.00,605.39 505.00,606.00 C505.00,606.61 504.59,606.86 504.08,606.55 C503.57,606.24 502.44,606.71 501.55,607.59 C500.48,608.66 496.98,609.50 491.22,610.06 C486.42,610.53 480.48,611.15 478.00,611.44 C475.52,611.72 466.75,612.45 458.50,613.05 C438.63,614.51 421.49,616.41 405.24,619.02 C414.62,617.40 423.34,616.14 430.08,615.50 C434.04,615.13 436.71,614.40 436.78,613.69 C436.85,613.03 437.02,611.83 437.16,611.00 C437.60,608.53 434.02,598.22 432.53,597.65 C431.74,597.35 430.40,598.27 429.40,599.81 C424.66,607.07 414.01,616.37 414.00,613.25 C414.00,612.84 412.65,611.60 411.00,610.50 C409.35,609.40 408.00,607.91 408.00,607.19 C408.00,606.47 407.66,606.05 407.25,606.26 C406.84,606.46 405.38,605.52 404.00,604.16 C402.62,602.80 402.17,602.05 403.00,602.50 C403.83,602.96 402.36,601.41 399.75,599.08 C397.14,596.74 395.00,594.37 395.00,593.81 C395.00,593.67 395.11,593.41 395.30,593.05 L 405.30 600.93 L 415.50 608.96 L 422.00 602.08 C425.58,598.29 429.58,593.76 430.90,592.01 L 433.30 588.82 L 430.77 586.66 C417.07,574.95 412.83,571.50 412.15,571.50 C411.72,571.50 407.70,576.31 403.23,582.20 L 400.14 586.26 C401.70,584.12 402.69,582.30 402.45,581.92 C401.95,581.11 405.76,574.46 408.87,570.73 C410.26,569.06 410.47,569.09 412.89,571.23 C414.29,572.48 414.84,572.71 414.10,571.75 C412.38,569.51 413.77,569.48 416.22,571.70 C417.89,573.21 422.03,574.70 420.60,573.27 C420.29,572.95 421.34,571.44 422.94,569.91 C425.37,567.58 425.58,567.05 424.18,566.68 C423.26,566.43 423.85,566.15 425.50,566.05 C427.15,565.94 429.40,565.47 430.50,565.00 L 432.50 564.14 L 430.50 564.08 C429.40,564.05 422.42,564.67 415.00,565.46 C391.93,567.93 365.76,572.65 347.85,577.59 C335.74,580.93 334.00,581.70 334.00,583.73 C334.01,584.70 336.43,594.50 339.39,605.50 L 339.91 607.43 C345.41,627.88 346.29,631.14 345.25,631.96 C345.02,632.14 344.70,632.20 344.31,632.30 C343.31,632.56 342.97,632.82 343.55,632.88 C344.13,632.95 350.21,631.44 357.05,629.53 ZM 346.09 557.01 C349.78,556.10 354.68,555.02 359.94,553.93 C345.24,557.04 330.93,560.70 323.38,563.43 C319.46,564.84 315.96,566.00 315.60,566.00 C314.74,566.00 312.96,561.31 312.28,557.23 C311.98,555.42 311.36,553.72 310.91,553.44 C310.46,553.16 310.32,552.32 310.61,551.57 C310.90,550.82 310.68,549.92 310.11,549.57 C309.55,549.22 309.33,548.30 309.63,547.52 C309.93,546.73 309.84,545.56 309.44,544.90 C309.03,544.24 308.54,541.92 308.34,539.74 C308.14,537.57 307.69,535.31 307.34,534.74 C306.98,534.16 306.51,531.62 306.30,529.09 C306.08,526.57 305.50,524.36 305.01,524.19 C304.52,524.01 304.36,523.22 304.67,522.42 C304.97,521.63 304.73,520.38 304.12,519.65 C303.51,518.91 303.29,518.04 303.63,517.70 C303.97,517.36 303.90,516.28 303.49,515.29 C303.07,514.31 302.55,511.70 302.33,509.50 C302.11,507.30 301.65,504.83 301.31,504.00 C300.97,503.17 300.63,502.05 300.56,501.50 C300.49,500.95 300.07,497.69 299.62,494.25 C299.17,490.81 298.47,488.00 298.07,488.00 C297.67,488.00 297.37,487.21 297.41,486.25 C297.55,482.98 295.81,472.00 295.15,471.99 C294.79,471.99 294.39,469.67 294.25,466.84 C294.11,464.01 293.55,461.16 293.01,460.51 C292.46,459.85 292.25,459.09 292.53,458.81 C293.14,458.19 286.20,415.34 285.02,412.50 C284.12,410.32 280.99,390.80 281.00,387.38 C281.00,385.88 280.51,385.36 278.01,385.00 C280.66,385.03 281.01,385.41 281.04,387.75 C281.05,389.26 281.94,395.23 283.00,401.00 C284.09,406.89 284.71,409.02 284.41,405.84 C283.83,399.66 284.74,392.72 286.02,393.51 C286.47,393.79 287.01,393.48 287.22,392.83 C287.44,392.18 288.20,394.99 288.92,399.07 C289.64,403.16 290.82,408.98 291.54,412.00 C292.27,415.02 294.06,422.67 295.53,429.00 C301.31,453.99 313.28,500.01 321.47,528.77 C326.21,545.42 329.82,559.49 329.49,560.02 C329.45,560.08 329.42,560.13 329.39,560.18 C329.23,560.42 329.11,560.61 329.16,560.72 C329.35,561.14 331.90,560.51 343.95,557.54 ZM 254.81 371.38 C253.82,369.76 253.03,368.05 252.47,366.28 C248.92,354.97 251.49,341.16 258.23,335.41 C260.24,333.70 260.32,333.69 259.05,335.33 C258.14,336.49 257.99,337.40 258.63,337.83 C259.19,338.20 260.62,340.55 261.82,343.06 C263.01,345.57 265.38,348.64 267.07,349.90 C269.97,352.04 270.26,352.07 272.01,350.49 C273.44,349.20 274.83,348.96 277.92,349.49 C280.14,349.86 283.43,349.72 285.23,349.17 C287.03,348.63 289.70,347.91 291.17,347.59 C292.64,347.27 295.23,345.84 296.92,344.41 C298.62,342.99 300.01,342.20 300.02,342.66 C300.02,343.12 300.51,342.83 301.09,342.00 C302.03,340.67 302.10,340.67 301.70,342.00 C301.46,342.83 302.11,344.44 303.15,345.59 C304.41,346.97 305.25,349.86 305.65,354.15 C306.53,363.55 304.18,370.87 298.45,376.61 C298.04,377.01 297.67,377.39 297.33,377.73 C297.65,377.30 297.64,377.03 297.25,377.02 C296.56,377.01 296.05,376.66 296.12,376.25 C296.79,371.98 295.72,366.95 293.75,365.12 C288.54,360.28 286.78,359.22 282.90,358.60 C280.65,358.24 277.08,357.06 274.95,355.97 C270.67,353.79 269.60,353.54 270.45,354.92 C270.76,355.42 268.80,356.57 266.08,357.47 C260.33,359.38 253.49,366.58 255.06,369.07 C256.34,371.08 256.22,372.25 254.83,371.39 ZM 601.09 599.04 C605.64,604.01 609.94,607.95 610.65,607.79 C613.33,607.19 629.90,593.46 629.47,592.20 C628.69,589.93 613.68,572.00 612.57,572.01 C611.36,572.02 593.68,587.53 593.17,589.03 C592.98,589.57 596.55,594.07 601.09,599.04 ZM 607.37 713.47 C590.05,715.97 573.90,718.00 569.32,718.00 C566.16,718.00 566.00,718.18 565.97,721.75 C565.95,723.81 565.39,726.19 564.72,727.02 C562.54,729.75 553.65,734.80 547.28,736.92 C539.83,739.41 538.14,739.48 535.20,737.43 C533.97,736.57 531.73,735.66 530.23,735.42 C528.80,735.18 528.13,735.08 528.36,735.56 C527.61,734.75 526.82,733.91 526.00,733.05 C521.05,727.85 517.00,723.07 517.00,722.42 C517.00,721.09 523.12,720.50 553.00,718.98 C566.74,718.28 587.65,716.07 607.37,713.47 ZM 469.72 633.97 C433.87,635.57 400.60,639.21 375.82,644.16 C390.31,641.19 407.16,638.83 430.00,636.55 C444.95,635.07 451.04,634.18 446.74,634.11 C442.00,634.03 438.56,633.33 435.24,631.77 L 430.50 629.53 L 433.50 628.88 C438.79,627.74 434.80,627.96 422.37,629.49 C428.43,628.68 434.24,628.02 439.55,627.57 C457.43,626.06 475.48,625.07 488.00,624.91 C500.30,624.76 503.14,625.02 506.72,626.62 C515.95,630.73 508.31,632.25 469.72,633.97 ZM 487.50 706.96 C484.20,705.90 480.51,705.02 479.31,705.01 C475.47,704.99 475.93,703.34 480.13,702.08 C482.37,701.41 484.04,700.71 483.85,700.53 C483.66,700.35 478.75,699.94 472.95,699.63 C467.15,699.31 458.15,698.59 452.95,698.03 C458.15,698.59 467.15,699.28 472.95,699.55 C478.75,699.83 488.23,700.47 494.00,700.99 C499.77,701.51 507.88,702.19 512.00,702.51 C516.12,702.82 522.43,703.57 526.02,704.16 C531.31,705.03 533.96,704.93 540.02,703.63 C546.69,702.20 556.62,700.72 567.26,699.51 C566.72,700.03 567.27,700.84 569.00,701.29 C572.04,702.08 571.41,703.55 567.25,705.35 C563.63,706.92 563.68,706.97 573.95,706.47 C569.75,706.81 565.30,707.12 561.00,707.38 C538.18,708.74 469.04,709.69 467.98,708.65 C467.71,708.40 463.23,707.89 458.00,707.52 C463.23,707.89 467.69,708.37 467.92,708.59 C468.15,708.82 474.00,708.98 480.92,708.95 L 493.50 708.89 ZM 625.90 632.39 C615.00,630.71 610.98,631.21 611.72,634.03 C612.00,635.11 612.97,636.05 613.87,636.12 C614.76,636.18 614.15,636.53 612.50,636.89 C610.53,637.32 612.90,637.94 620.96,639.04 C607.82,637.37 593.02,636.03 576.50,635.00 C560.98,634.03 547.60,631.79 546.47,629.95 C546.22,629.55 546.73,628.64 547.60,627.92 C550.67,625.37 581.23,626.19 605.00,629.47 C606.38,629.66 609.75,630.07 612.50,630.38 C616.22,630.79 620.88,631.51 625.90,632.39 ZM 503.95 726.71 C503.69,726.47 502.41,726.60 500.88,727.03 C497.73,727.94 490.98,726.07 491.02,724.30 C491.06,722.13 492.95,720.77 495.15,721.32 C496.45,721.65 498.14,721.53 498.90,721.06 C499.76,720.53 496.71,719.99 490.89,719.64 C489.04,719.53 487.26,719.42 485.54,719.32 C487.58,719.41 489.66,719.50 491.77,719.59 C497.61,719.83 502.84,720.19 505.85,720.54 C505.64,720.90 505.56,721.41 505.72,722.02 C506.04,723.24 506.36,723.64 506.98,723.34 C506.20,724.26 505.16,725.42 503.95,726.71 ZM 542.26 399.16 C543.42,399.44 543.46,400.01 542.48,402.39 L 541.29 405.28 L 540.59 402.52 C539.82,399.43 540.19,398.67 542.26,399.16 ZM 530.03 737.35 C530.38,737.68 530.79,738.06 531.25,738.50 C533.31,740.44 535.00,742.40 535.00,742.85 C535.00,742.89 534.98,742.93 534.95,742.99 C534.65,742.46 532.72,740.26 530.03,737.35 ZM 490.02 741.66 C490.01,741.61 490.00,741.57 490.00,741.54 C490.00,740.88 492.72,737.86 496.19,734.62 C492.78,738.14 490.29,740.97 490.02,741.66 ZM 296.58 378.50 C294.12,381.08 294.30,381.53 295.61,383.53 C296.50,384.89 296.98,386.00 296.67,386.00 C296.98,386.00 296.45,384.81 295.49,383.35 C293.80,380.77 293.82,380.65 296.13,378.87 C296.29,378.74 296.44,378.62 296.58,378.50 ZM 649.36 637.16 C658.36,639.23 665.46,641.22 666.75,642.24 C665.68,641.39 658.15,639.26 649.36,637.16 ZM 578.49 698.36 C579.66,698.26 580.83,698.15 582.00,698.06 C592.74,697.17 598.85,696.63 604.24,695.96 C602.54,696.19 601.07,696.37 600.00,696.47 C593.82,697.08 585.11,697.84 578.49,698.36 ZM 269.80 383.37 C266.03,382.03 262.53,379.90 259.62,377.21 C260.27,377.79 260.92,378.33 261.53,378.80 C263.99,380.69 266.90,382.27 269.80,383.37 ZM 523.67 753.12 C518.14,757.67 512.51,762.00 511.78,761.99 C512.43,762.00 518.10,757.65 523.67,753.12 ZM 447.26 716.70 C442.91,716.30 440.06,715.93 437.50,715.50 C436.86,715.40 436.24,715.29 435.63,715.19 C436.23,715.29 436.85,715.38 437.50,715.49 C440.13,715.90 443.42,716.31 447.26,716.70 ZM 511.78 761.99 C510.93,761.99 505.67,757.46 500.54,752.65 C505.71,757.44 511.00,761.99 511.78,761.99 ZM 658.23 645.60 C663.98,646.75 666.37,647.03 667.35,646.57 C666.35,647.10 663.91,646.80 658.23,645.60 ZM 368.07 640.01 C375.83,637.97 384.67,635.99 393.80,634.22 C384.59,636.03 375.43,638.07 368.07,640.01 ZM 355.34 648.82 C354.81,648.94 354.49,649.00 354.44,649.00 C353.92,649.00 353.89,648.54 354.37,647.44 C353.85,648.67 354.11,649.01 355.34,648.82 ZM 296.67 386.00 C296.30,386.00 298.34,389.55 301.97,395.39 C298.24,389.42 296.29,386.00 296.67,386.00 ZM 414.51 712.39 C410.75,711.99 404.73,711.09 398.16,709.99 C404.61,711.07 410.57,711.96 414.51,712.39 ZM 424.49 713.51 C421.89,713.17 419.37,712.88 416.62,712.60 C419.50,712.88 421.67,713.13 424.49,713.51 ZM 362.91 647.05 C360.72,647.58 358.76,648.04 357.27,648.38 C358.38,648.11 360.44,647.63 362.91,647.05 ZM 399.02 587.74 L 397.21 590.12 C397.74,589.38 398.35,588.58 398.99,587.78 ZM 616.52 694.14 C616.96,694.06 617.40,693.99 617.85,693.91 C621.36,693.32 624.85,692.79 627.47,692.44 C624.85,692.79 621.36,693.32 617.85,693.91 C617.42,693.99 616.97,694.06 616.52,694.14 ZM 508.49 721.01 C508.51,721.02 508.52,721.04 508.53,721.05 C508.55,721.08 508.55,721.12 508.53,721.19 C508.52,721.13 508.51,721.07 508.49,721.01 Z" fill="rgb(240,178,15)"/>
<path d="M 564.50 766.92 C504.42,771.16 423.70,766.29 375.50,755.51 C372.20,754.77 366.58,753.62 363.00,752.95 C343.09,749.22 316.87,739.47 315.66,735.36 C314.79,732.41 315.56,727.15 319.63,708.00 C322.04,696.67 323.96,690.28 325.30,689.17 C326.12,688.49 328.37,688.97 332.50,690.72 C337.77,692.95 349.00,696.48 358.63,698.94 C360.35,699.38 362.23,700.02 362.80,700.37 C363.36,700.72 366.90,701.65 370.66,702.44 C374.42,703.22 382.90,705.03 389.50,706.44 C396.10,707.86 405.77,709.46 411.00,709.99 C427.13,711.65 437.15,712.92 446.00,714.41 C457.14,716.29 483.29,717.26 521.00,717.19 C551.45,717.13 569.17,716.16 589.00,713.46 C594.78,712.67 604.63,711.56 610.90,710.98 C617.17,710.41 622.77,709.64 623.35,709.28 C624.88,708.34 636.90,706.14 649.05,704.59 C655.50,703.76 663.46,701.89 669.55,699.75 C675.02,697.83 682.01,695.51 685.09,694.59 C688.16,693.67 691.54,692.33 692.59,691.61 C695.07,689.93 698.53,689.08 699.69,689.87 C701.09,690.84 703.05,698.39 705.16,711.00 C709.17,734.98 709.28,736.15 707.64,737.79 C705.00,740.43 686.95,747.11 673.50,750.42 C669.65,751.37 663.35,752.99 659.50,754.02 C647.83,757.13 636.41,759.06 609.50,762.44 C596.19,764.12 576.62,766.06 564.50,766.92 ZM 558.00 765.93 C582.01,764.40 596.79,763.13 602.80,762.09 C605.94,761.54 612.78,760.60 618.00,759.99 C623.22,759.39 630.88,758.26 635.00,757.49 C639.12,756.72 644.08,755.85 646.00,755.57 C652.92,754.55 689.35,744.81 692.88,743.05 C694.93,742.02 698.46,740.51 703.25,738.60 C707.42,736.93 707.88,735.02 705.90,727.50 C705.32,725.30 704.65,721.78 704.42,719.68 C704.18,717.57 703.63,715.10 703.18,714.18 C702.73,713.25 702.24,710.70 702.10,708.50 C701.95,706.30 701.42,704.07 700.92,703.55 C700.41,703.03 700.00,701.35 700.00,699.82 C700.00,697.99 699.18,696.51 697.59,695.47 C695.45,694.07 694.80,694.06 691.68,695.36 C689.74,696.17 687.94,696.61 687.68,696.34 C687.41,696.08 684.34,696.98 680.85,698.35 C671.24,702.12 665.18,704.00 662.61,704.00 C661.34,704.00 658.99,704.40 657.40,704.89 C652.08,706.53 628.82,710.37 607.37,713.47 C587.65,716.07 566.74,718.28 553.00,718.98 C523.12,720.50 517.00,721.09 517.00,722.42 C517.00,723.07 521.05,727.85 526.00,733.05 C526.82,733.91 527.61,734.75 528.36,735.56 C528.52,735.86 529.06,736.42 530.03,737.35 C532.72,740.26 534.65,742.46 534.95,742.99 C534.41,744.00 529.09,748.66 523.67,753.12 C518.10,757.65 512.43,762.00 511.78,761.99 C511.00,761.99 505.71,757.44 500.54,752.65 L 500.54 752.65 C495.41,747.85 490.40,742.78 490.02,741.66 C490.29,740.97 492.78,738.14 496.19,734.62 C496.45,734.37 496.72,734.12 496.99,733.87 C500.84,730.37 503.99,727.19 503.99,726.82 C503.99,726.78 503.98,726.74 503.95,726.71 C505.16,725.42 506.20,724.26 506.98,723.34 C507.16,723.25 507.37,723.11 507.61,722.91 C508.23,722.40 508.59,721.69 508.53,721.19 C508.55,721.12 508.55,721.08 508.53,721.05 C508.52,721.04 508.51,721.02 508.49,721.01 C508.47,720.97 508.45,720.93 508.43,720.89 C507.65,719.62 506.37,719.68 505.85,720.54 C502.84,720.19 497.61,719.83 491.77,719.59 C489.66,719.50 487.58,719.41 485.54,719.32 C465.33,718.09 454.31,717.35 447.26,716.70 L 447.26 716.70 C443.41,716.31 440.13,715.90 437.50,715.49 C436.85,715.38 436.23,715.29 435.63,715.19 L 435.63 715.19 C431.25,714.47 427.71,713.93 424.28,713.49 C421.76,713.15 419.30,712.87 416.62,712.60 L 416.62 712.60 C416.09,712.54 415.55,712.49 415.00,712.44 C414.80,712.42 414.60,712.40 414.39,712.37 C410.63,711.97 404.69,711.08 398.21,710.00 L 398.16 709.99 C386.54,708.04 373.19,705.46 367.50,703.93 C365.30,703.33 361.70,702.50 359.50,702.07 C357.30,701.65 354.15,700.72 352.50,700.01 C350.85,699.30 348.08,698.11 346.35,697.36 C344.62,696.61 342.37,695.99 341.35,695.98 C340.33,695.97 337.70,695.14 335.50,694.14 C328.01,690.75 326.37,690.69 325.14,693.76 C323.81,697.10 322.51,702.74 319.58,718.00 C317.04,731.24 316.89,732.92 318.03,735.06 C319.10,737.06 332.06,744.00 334.71,744.00 C335.41,744.00 340.29,745.38 345.55,747.07 C354.94,750.07 360.76,751.38 388.00,756.62 C403.19,759.54 408.89,760.31 431.00,762.44 C439.52,763.27 451.00,764.45 456.50,765.07 C477.65,767.47 527.22,767.89 558.00,765.93 ZM 479.88 540.00 L 480.00 539.99 C533.86,537.56 543.11,537.05 544.00,536.50 C544.53,536.17 547.61,536.39 550.85,536.97 C557.97,538.26 560.41,537.64 558.95,534.90 C558.30,533.70 556.85,533.00 555.00,533.00 C553.39,533.00 550.59,532.35 548.78,531.56 C546.98,530.77 544.38,529.86 543.00,529.54 C541.37,529.16 538.68,526.40 535.25,521.56 C532.36,517.50 530.00,513.75 530.00,513.24 C530.00,512.73 529.05,511.45 527.89,510.40 C526.74,509.36 524.87,506.70 523.75,504.50 C522.63,502.30 520.20,498.73 518.36,496.57 C516.51,494.41 514.98,492.16 514.96,491.57 C514.94,490.98 511.81,486.00 508.01,480.50 C504.21,475.00 499.72,468.14 498.04,465.25 C495.10,460.21 493.30,459.16 488.75,459.88 C487.67,460.05 487.78,458.70 489.95,444.37 C491.02,437.29 492.40,428.12 493.02,424.00 C494.36,415.01 502.72,367.58 505.06,355.70 C506.24,349.69 506.24,348.73 505.05,349.47 C504.07,350.08 501.47,346.19 502.31,345.36 C502.56,345.10 503.70,344.82 504.82,344.74 C505.95,344.65 507.09,343.78 507.34,342.79 C507.68,341.52 508.79,341.00 511.16,340.99 C513.00,340.98 516.19,340.70 518.25,340.36 C521.98,339.74 522.00,339.71 522.00,334.91 C522.00,333.83 522.00,332.99 522.05,332.33 C522.59,335.31 527.31,346.68 533.65,360.19 C536.22,365.68 537.87,370.41 537.44,371.10 C537.00,371.81 537.11,372.05 537.70,371.69 C538.25,371.34 539.23,372.20 539.86,373.60 C540.77,375.60 540.75,375.98 539.76,375.40 C539.07,375.00 539.46,375.76 540.63,377.09 C543.69,380.55 546.20,385.87 545.39,387.18 C544.93,387.92 545.15,388.03 546.02,387.49 C546.99,386.89 547.16,387.13 546.68,388.39 C546.32,389.33 546.39,389.87 546.85,389.59 C547.30,389.31 550.33,394.12 553.59,400.28 C561.02,414.35 575.62,438.77 580.91,446.00 C583.13,449.02 586.92,454.42 589.35,458.00 C591.77,461.58 596.18,467.30 599.13,470.73 C602.08,474.16 606.75,479.64 609.50,482.92 C612.25,486.20 615.00,488.91 615.61,488.94 C616.55,488.99 645.20,463.84 654.40,454.89 C656.00,453.34 657.64,452.28 658.04,452.52 C658.44,452.77 659.39,452.20 660.14,451.24 C661.39,449.64 661.33,449.61 659.50,450.87 C658.40,451.63 658.85,451.05 660.50,449.58 C662.15,448.11 666.85,443.66 670.95,439.70 C675.04,435.74 677.33,433.74 676.02,435.25 C672.15,439.74 674.74,438.40 681.64,432.34 C685.19,429.22 687.88,426.14 687.63,425.48 C687.03,423.91 707.48,403.56 708.82,404.39 C709.40,404.74 710.00,404.02 710.18,402.76 C710.36,401.52 711.17,400.49 712.00,400.47 C714.03,400.44 716.14,399.04 715.57,398.11 C715.31,397.69 718.45,394.02 722.55,389.95 C726.65,385.88 730.00,381.84 730.00,380.98 C730.00,380.19 728.53,378.14 726.65,376.25 C729.04,378.53 731.00,380.92 731.00,381.57 C731.00,382.82 727.45,389.22 714.11,412.00 C693.89,446.53 673.47,483.24 663.47,503.00 C661.94,506.02 660.50,507.95 660.27,507.27 C660.04,506.60 659.92,505.75 660.01,505.39 C660.40,503.77 657.44,503.46 649.43,504.28 C644.70,504.77 640.63,504.96 640.39,504.72 C640.14,504.48 641.05,497.81 642.41,489.91 C643.77,482.01 644.75,475.42 644.59,475.25 C644.26,474.92 639.56,478.74 626.31,490.08 C621.44,494.25 616.29,498.42 614.87,499.35 C611.93,501.27 608.57,500.57 609.47,498.22 C609.79,497.38 607.90,498.66 605.28,501.07 C602.65,503.48 599.60,506.27 598.50,507.28 C596.56,509.06 596.45,509.05 594.60,506.80 C592.23,503.94 569.05,454.90 558.52,430.50 C553.84,419.65 549.56,411.00 548.87,411.00 C548.43,411.00 548.35,410.21 548.69,409.25 C549.04,408.29 548.96,407.82 548.53,408.21 C548.09,408.61 546.94,408.50 545.97,407.99 C543.31,406.56 541.63,409.19 542.44,413.52 C542.80,415.46 543.42,416.87 543.80,416.63 C544.19,416.40 544.57,418.75 544.66,421.86 C544.80,426.88 550.14,454.69 563.00,517.50 C565.25,528.50 567.32,538.24 567.58,539.15 C567.96,540.43 569.91,540.95 576.29,541.49 C585.38,542.26 594.54,543.19 603.60,544.25 C592.23,542.95 580.33,541.80 568.00,540.82 C552.05,539.54 508.54,539.28 479.88,540.00 ZM 507.44 601.90 C509.05,603.61 510.93,605.00 511.61,605.00 C513.28,605.00 517.24,601.71 532.50,587.63 L 536.50 583.93 L 525.00 572.97 C518.67,566.94 512.80,562.01 511.95,562.01 C510.86,562.00 495.86,576.31 490.17,582.47 C490.25,581.86 490.29,581.00 490.36,579.80 C490.44,578.31 491.06,576.54 491.75,575.85 C492.44,575.16 493.00,573.59 493.00,572.36 C493.00,571.13 493.48,569.82 494.08,569.45 C494.76,569.03 494.40,568.09 493.08,566.86 C491.93,565.79 491.00,564.28 491.00,563.50 C491.00,560.41 487.00,559.77 470.35,560.17 C461.36,560.38 454.00,560.31 454.00,560.00 C454.00,559.69 452.64,558.63 450.98,557.65 C448.23,556.02 446.88,555.96 436.23,556.95 C430.79,557.46 423.79,558.21 419.25,558.77 C451.66,554.57 489.19,552.63 524.50,553.34 C551.26,553.87 598.30,556.45 599.96,557.47 C600.35,557.72 603.11,558.15 606.08,558.43 C616.67,559.44 621.86,560.17 623.27,560.87 C621.15,560.07 608.97,559.90 607.64,560.72 C607.13,561.04 608.24,562.11 610.10,563.11 C614.29,565.34 613.83,565.35 596.50,563.51 C588.80,562.69 580.19,562.02 577.37,562.01 L 572.25 562.00 L 571.71 567.25 C570.41,579.98 568.90,590.21 568.10,591.79 C564.45,599.01 560.00,608.87 560.00,609.73 C560.00,610.30 562.59,611.07 565.75,611.43 C568.91,611.79 573.75,612.49 576.50,612.98 C577.67,613.19 579.66,613.48 582.01,613.79 C562.52,611.90 545.89,611.54 514.00,611.57 C492.40,611.60 479.69,611.73 467.64,612.35 C472.44,611.97 476.45,611.62 478.00,611.44 C480.48,611.15 486.42,610.53 491.22,610.06 C496.98,609.50 500.48,608.66 501.55,607.59 C502.44,606.71 503.57,606.24 504.08,606.55 C504.59,606.86 505.00,606.61 505.00,606.00 C505.00,605.39 505.56,605.16 506.25,605.50 C506.94,605.84 506.45,605.31 505.18,604.31 C503.90,603.31 500.30,600.11 497.18,597.19 C494.05,594.26 490.26,591.21 488.75,590.41 C487.24,589.61 486.00,588.55 486.00,588.06 C486.00,586.03 487.30,584.00 488.61,584.00 C488.68,584.00 488.75,584.00 488.81,584.00 C488.29,584.62 488.00,585.03 488.00,585.18 C488.00,585.45 491.71,588.63 496.25,592.24 C500.79,595.85 505.82,600.20 507.44,601.90 ZM 551.00 710.46 C502.44,712.47 458.42,711.18 433.50,707.00 C427.45,705.98 419.35,704.85 415.50,704.47 C411.65,704.10 407.15,703.64 405.50,703.44 C402.65,703.10 389.62,699.23 376.50,694.81 C369.20,692.36 357.77,686.18 358.46,685.07 C359.00,684.20 363.64,684.50 374.00,686.07 C394.89,689.25 399.94,690.07 404.00,690.97 C419.44,694.38 486.03,698.99 520.00,698.99 C553.76,699.00 599.74,695.69 617.67,691.97 C622.55,690.95 627.30,690.23 647.84,687.37 C660.46,685.61 663.44,686.34 657.82,689.79 C653.01,692.75 644.53,695.82 636.50,697.51 C632.65,698.32 627.25,699.65 624.50,700.46 C608.68,705.13 577.60,709.35 551.00,710.46 ZM 296.67 386.00 L 296.67 386.00 C296.98,386.00 296.50,384.89 295.61,383.53 C295.42,383.24 295.25,382.97 295.11,382.74 C295.17,382.83 295.24,382.94 295.32,383.04 C300.56,390.52 406.71,489.53 409.90,489.92 L 408.83 491.13 L 413.92 496.51 C418.85,501.72 420.30,503.92 417.77,502.36 C417.09,501.94 415.78,501.54 414.85,501.47 C413.07,501.34 409.15,498.40 400.70,490.87 C394.05,484.95 388.19,481.00 386.02,481.00 C384.90,481.00 383.45,483.04 381.74,487.00 C379.91,491.23 378.40,493.28 376.58,493.97 C373.63,495.09 373.04,498.96 375.50,501.00 C376.33,501.68 377.00,502.89 377.00,503.67 C377.00,504.46 377.72,506.54 378.61,508.30 C381.78,514.62 377.39,508.70 362.80,487.00 C361.11,484.49 359.12,481.54 356.95,478.31 C350.45,468.62 343.39,458.14 335.89,447.00 C321.04,424.97 308.65,406.09 301.96,395.39 C298.34,389.55 296.30,386.00 296.67,386.00 ZM 594.00 704.38 C612.12,701.12 616.67,700.10 621.61,698.22 C624.42,697.15 628.36,695.97 630.36,695.59 C634.51,694.81 635.48,692.00 631.60,692.00 C631.02,692.00 629.51,692.16 627.47,692.44 L 627.42 692.45 C624.81,692.80 621.34,693.32 617.85,693.91 C617.40,693.99 616.96,694.06 616.54,694.13 L 616.52 694.14 C612.44,694.81 607.82,695.49 604.24,695.96 L 604.24 695.97 C598.85,696.63 592.74,697.17 582.00,698.06 C580.83,698.15 579.66,698.26 578.49,698.36 C573.86,698.73 570.25,698.98 569.25,698.98 C568.24,698.99 567.57,699.20 567.26,699.51 C556.62,700.72 546.69,702.20 540.02,703.63 C533.96,704.93 531.31,705.03 526.02,704.16 C522.43,703.57 516.12,702.82 512.00,702.51 C507.88,702.19 499.77,701.51 494.00,700.99 C488.23,700.47 478.75,699.83 472.95,699.55 C467.15,699.28 458.15,698.59 452.95,698.03 C447.75,697.46 438.55,696.55 432.50,696.01 C426.45,695.47 414.75,694.08 406.50,692.94 C383.29,689.72 383.20,689.71 381.30,690.44 C379.68,691.06 379.75,691.31 382.01,693.04 C383.38,694.09 385.49,694.97 386.69,694.98 C387.90,694.99 389.16,695.45 389.50,696.00 C389.84,696.55 391.33,697.01 392.81,697.01 C394.29,697.02 397.52,697.74 400.00,698.60 C407.56,701.24 440.43,706.30 458.00,707.52 C463.23,707.89 467.71,708.40 467.98,708.65 C469.04,709.69 538.18,708.74 561.00,707.38 C565.30,707.12 569.75,706.81 573.95,706.47 L 574.50 706.45 C580.55,706.15 589.33,705.22 594.00,704.38 ZM 541.55 315.29 C542.39,313.74 542.92,312.27 543.02,311.00 C543.75,301.99 541.68,299.98 536.68,304.83 C532.09,309.27 525.02,310.63 517.09,308.60 C509.26,306.59 498.77,301.21 492.55,295.99 C488.62,292.70 487.07,291.97 485.05,292.46 C483.65,292.80 481.94,293.14 481.25,293.21 C480.87,293.25 480.58,293.64 480.37,294.29 C481.08,288.51 483.12,283.00 486.36,278.75 C489.78,274.26 497.40,267.97 499.33,268.04 C499.97,268.06 499.15,268.83 497.50,269.74 C495.13,271.06 494.87,271.48 496.25,271.78 C498.15,272.18 498.62,274.50 497.00,275.50 C496.45,275.84 496.00,276.99 496.00,278.06 C496.00,279.64 496.71,280.00 499.85,280.00 C502.33,280.00 504.29,280.66 505.38,281.87 C508.19,284.97 518.01,286.55 524.80,284.98 C532.58,283.19 533.74,282.48 534.49,279.03 C535.04,276.55 534.66,275.59 532.33,273.50 C529.59,271.04 529.58,271.00 532.00,272.07 C533.38,272.67 536.19,275.27 538.25,277.83 C546.06,287.53 547.93,302.50 542.67,313.23 C542.34,313.91 541.96,314.60 541.55,315.29 ZM 478.22 673.05 C479.83,671.17 479.74,671.09 475.69,670.60 C473.39,670.31 466.33,669.81 460.00,669.48 C457.62,669.35 454.61,669.14 451.16,668.86 C485.54,671.00 542.46,671.19 573.50,668.94 C602.42,666.84 629.01,664.05 630.50,662.96 C631.05,662.56 634.88,661.68 639.00,661.01 C643.12,660.33 651.99,658.48 658.70,656.89 C672.56,653.60 674.00,653.46 674.00,655.38 C674.00,657.34 659.11,662.41 642.64,666.04 C628.99,669.06 605.04,672.69 583.50,675.01 C556.33,677.95 480.50,677.73 445.77,674.63 C445.17,674.57 444.57,674.52 443.97,674.46 C447.45,674.61 454.24,674.77 461.03,674.84 C475.29,674.99 476.69,674.84 478.22,673.05 ZM 718.61 350.88 C718.81,347.19 719.31,345.04 720.27,343.26 C725.33,333.99 734.36,327.97 743.94,327.50 C748.85,327.26 749.03,327.32 745.50,327.96 C743.30,328.37 742.17,328.77 742.98,328.85 C743.83,328.94 742.88,330.08 740.76,331.52 C735.69,334.96 734.75,336.97 736.94,339.68 C740.49,344.07 745.10,345.99 752.06,346.00 C759.75,346.00 761.23,345.07 762.90,339.17 C764.08,335.02 764.22,334.90 766.31,336.28 C767.58,337.11 769.74,340.95 771.44,345.43 C774.21,352.69 774.32,353.51 773.29,359.51 C772.69,363.01 771.18,367.91 769.94,370.40 C769.43,371.42 768.83,372.41 768.14,373.37 C768.75,372.51 769.27,371.62 769.71,370.71 C771.83,366.29 772.73,357.57 771.16,356.60 C770.66,356.29 768.73,357.15 766.87,358.51 C758.47,364.67 753.62,365.34 745.72,361.40 C740.27,358.69 729.00,348.50 729.00,346.28 C729.00,345.58 728.55,345.00 728.00,345.00 C727.45,345.00 727.00,344.35 727.00,343.56 C727.00,342.77 726.48,341.79 725.84,341.40 C724.37,340.49 720.00,345.44 720.00,348.00 C720.00,349.03 719.49,350.19 718.88,350.58 C718.78,350.64 718.69,350.74 718.61,350.88 ZM 506.74 755.90 C508.52,757.61 511.00,758.99 512.24,758.98 C514.35,758.96 531.00,745.50 531.77,743.20 C532.18,741.96 513.68,724.72 511.62,724.41 C510.77,724.29 508.57,725.61 506.72,727.34 C504.87,729.08 500.80,732.75 497.68,735.49 C494.56,738.24 492.00,741.00 492.00,741.62 C492.00,742.25 494.59,745.02 497.75,747.78 C500.91,750.54 504.96,754.20 506.74,755.90 ZM 301.68 341.20 C301.55,341.36 301.35,341.63 301.09,342.00 C300.51,342.83 300.02,343.12 300.02,342.66 C300.01,342.20 298.62,342.99 296.92,344.41 C295.23,345.84 292.64,347.27 291.17,347.59 C289.70,347.91 287.03,348.63 285.23,349.17 C283.43,349.72 280.14,349.86 277.92,349.49 C274.83,348.96 273.44,349.20 272.01,350.49 C270.26,352.07 269.97,352.04 267.07,349.90 C265.38,348.64 263.01,345.57 261.82,343.06 C260.62,340.55 259.19,338.20 258.63,337.83 C257.99,337.40 258.14,336.49 259.05,335.33 C259.71,334.48 260.00,334.07 259.85,334.11 C265.81,328.55 271.41,326.60 279.46,327.24 C286.83,327.84 292.35,330.61 298.20,336.67 C299.53,338.05 300.69,339.57 301.68,341.20 ZM 608.45 751.73 C607.33,750.50 603.62,747.25 600.22,744.50 C596.82,741.75 593.81,738.92 593.53,738.20 C593.25,737.49 595.39,734.12 598.28,730.70 C601.17,727.29 604.57,723.04 605.83,721.25 C608.69,717.22 610.02,717.18 612.84,721.00 C614.06,722.65 615.51,724.00 616.06,724.00 C617.59,724.00 629.00,734.44 629.00,735.85 C629.00,736.26 626.73,739.06 623.95,742.05 C621.17,745.05 617.74,748.96 616.33,750.75 C613.32,754.56 611.28,754.81 608.45,751.73 ZM 403.67 744.99 C399.45,740.58 396.03,736.19 396.07,735.24 C396.14,733.31 412.17,720.00 414.42,720.00 C416.36,720.00 428.94,733.92 429.69,736.91 C430.12,738.61 429.74,739.72 428.40,740.70 C427.35,741.46 425.60,742.85 424.50,743.79 C418.04,749.32 413.17,753.00 412.32,753.00 C411.78,753.00 407.89,749.39 403.67,744.99 ZM 605.36 746.64 C608.58,749.04 611.82,751.00 612.56,751.00 C614.18,751.00 626.00,737.50 626.00,735.65 C626.00,734.94 624.97,733.49 623.72,732.43 C622.46,731.37 618.87,728.34 615.74,725.69 C611.86,722.41 609.59,721.14 608.64,721.69 C607.15,722.56 602.00,728.45 602.00,729.29 C602.00,729.57 600.36,731.44 598.36,733.44 L 594.72 737.08 L 597.11 739.68 C598.43,741.11 602.14,744.24 605.36,746.64 ZM 411.19 750.32 C411.91,750.61 412.82,750.88 413.22,750.92 C414.05,751.01 420.03,745.98 424.81,741.17 C428.08,737.88 428.10,737.80 426.40,735.17 C423.32,730.42 417.72,723.92 415.82,722.90 C414.46,722.17 413.17,722.38 410.98,723.67 C409.34,724.64 408.00,725.72 408.00,726.08 C408.00,726.44 406.26,727.89 404.13,729.30 C398.18,733.23 398.26,735.72 404.58,743.37 C407.49,746.90 410.46,750.03 411.19,750.32 ZM 469.72 633.97 C508.31,632.25 515.95,630.73 506.72,626.62 C503.14,625.02 500.30,624.76 488.00,624.91 C487.19,624.92 486.37,624.94 485.52,624.95 C516.84,624.30 561.94,624.58 573.00,625.84 C578.63,626.49 586.57,627.37 591.73,627.94 C571.14,626.00 550.12,625.82 547.60,627.92 C546.73,628.64 546.22,629.55 546.47,629.95 C547.48,631.59 558.19,633.55 571.47,634.64 C528.95,632.24 485.04,632.57 446.00,635.35 C453.73,634.79 461.66,634.33 469.72,633.97 ZM 368.07 640.01 C361.79,641.67 356.61,643.13 356.57,643.26 C356.53,643.39 355.94,644.51 355.25,645.74 C354.86,646.43 354.56,647.00 354.37,647.44 C353.89,648.54 353.92,649.00 354.44,649.00 C354.49,649.00 354.81,648.94 355.34,648.82 C355.72,648.76 356.19,648.66 356.75,648.51 C356.89,648.48 357.06,648.43 357.27,648.38 C357.35,648.36 357.43,648.34 357.52,648.32 C358.67,648.04 360.61,647.59 362.91,647.05 L 362.91 647.05 C363.50,646.91 364.11,646.77 364.74,646.63 C355.29,648.91 350.00,650.84 350.00,652.04 C350.00,653.14 358.14,655.44 373.12,658.56 C390.65,662.22 394.00,662.87 420.06,665.83 C407.80,664.48 396.12,663.04 389.50,661.98 C380.79,660.58 376.00,660.72 376.00,662.38 C376.00,663.14 377.24,664.26 378.75,664.88 C382.30,666.33 411.30,670.81 432.17,673.28 C395.91,669.33 363.93,663.02 350.67,657.00 C343.36,653.69 342.56,652.88 343.39,649.58 C344.09,646.80 349.47,644.72 368.69,639.85 C368.48,639.90 368.28,639.96 368.07,640.01 ZM 504.68 330.63 C504.68,330.64 504.68,330.64 504.69,330.65 C505.40,332.48 498.05,354.35 496.04,356.36 C495.47,356.93 495.00,358.24 495.00,359.26 C495.00,360.28 494.56,360.85 494.03,360.52 C493.50,360.19 492.76,361.17 492.39,362.71 C492.02,364.24 491.28,366.07 490.73,366.77 C490.18,367.46 486.87,373.87 483.38,381.02 C479.89,388.16 476.78,394.00 476.48,394.00 C476.18,394.00 476.41,393.10 477.00,392.00 C477.59,390.90 477.84,390.00 477.56,390.00 C476.94,390.00 473.99,395.58 474.02,396.70 C474.02,397.14 474.47,396.83 475.00,396.00 C475.53,395.17 475.97,394.95 475.98,395.50 C475.98,396.05 475.07,397.85 473.94,399.50 C472.82,401.15 470.56,405.09 468.93,408.25 C467.30,411.41 465.73,414.00 465.43,414.00 C465.13,414.00 465.21,413.44 465.60,412.75 C466.00,412.06 465.96,411.83 465.51,412.23 C465.08,412.62 464.47,413.45 463.81,414.47 C463.93,414.20 464.00,414.01 464.00,413.92 C464.00,413.45 467.31,407.09 471.35,399.78 C475.39,392.48 481.41,380.88 484.74,374.00 C501.97,338.37 505.03,331.72 504.68,330.63 ZM 723.56 509.24 C726.47,492.03 728.70,477.44 728.37,476.24 C728.04,475.00 728.23,473.43 728.80,472.74 C729.36,472.06 730.06,468.12 730.35,464.00 C731.01,454.47 732.02,449.00 733.13,449.00 C733.61,449.00 734.00,446.52 734.00,443.50 C734.00,440.26 734.44,438.00 735.07,438.00 C735.72,438.00 736.04,436.13 735.88,433.25 C735.45,425.63 735.91,420.83 736.99,421.49 C737.54,421.83 737.73,421.46 737.42,420.66 C737.12,419.87 737.35,416.81 737.93,413.86 C738.52,410.91 739.67,404.23 740.49,399.00 C741.71,391.24 742.40,387.88 744.14,386.28 L 742.18 397.87 C741.00,404.82 739.11,416.35 737.98,423.50 C733.46,451.88 728.16,483.21 723.56,509.24 ZM 610.50 670.00 C610.84,669.45 613.68,668.97 616.81,668.94 C624.48,668.86 636.25,666.74 636.71,665.37 C637.40,663.30 632.55,663.05 621.50,664.57 C606.36,666.66 605.27,666.93 607.05,668.05 C607.85,668.56 608.14,668.98 607.69,668.98 C606.59,669.01 607.89,671.00 609.00,671.00 C609.49,671.00 610.16,670.55 610.50,670.00 ZM 668.00 645.12 C668.00,644.09 667.44,642.79 666.75,642.24 C666.48,642.03 665.95,641.77 665.20,641.48 C674.92,644.42 681.94,647.29 683.15,649.25 C684.04,650.68 682.30,653.00 680.34,653.00 C679.57,653.00 677.93,652.36 676.71,651.57 C673.98,649.82 667.94,647.86 659.77,645.92 C664.36,646.85 666.45,647.05 667.35,646.57 C667.90,646.31 668.00,645.82 668.00,645.12 ZM 701.28 627.14 C701.69,624.58 701.95,622.07 701.96,620.25 C701.98,617.36 702.41,615.00 702.92,615.00 C703.42,615.00 703.85,612.32 703.87,609.05 C703.89,603.74 705.03,597.24 706.68,593.00 C707.00,592.17 707.37,589.63 707.50,587.34 C707.70,583.80 707.32,582.87 704.91,581.09 C703.35,579.94 701.36,579.00 700.48,579.00 C699.60,579.00 699.15,578.56 699.48,578.03 C699.65,577.75 699.47,577.43 699.04,577.14 C704.92,579.15 708.25,580.60 708.95,581.44 C710.04,582.75 709.84,584.01 703.33,617.30 C702.64,620.81 701.94,624.18 701.28,627.14 ZM 594.75 672.36 C597.64,672.01 600.00,671.33 600.00,670.86 C600.00,670.39 599.44,669.99 598.75,669.98 C597.90,669.97 597.98,669.63 599.00,668.90 C600.10,668.12 599.04,667.99 595.00,668.41 C591.97,668.72 587.81,668.99 585.75,668.99 C581.85,669.00 581.12,670.05 583.25,672.55 C584.01,673.44 585.49,673.81 587.00,673.50 C588.38,673.22 591.86,672.70 594.75,672.36 ZM 576.45 672.28 C577.28,670.10 576.75,669.82 572.35,670.18 L 568.50 670.50 L 570.73 672.73 C573.08,675.08 575.44,674.89 576.45,672.28 ZM 696.71 415.98 C691.65,421.14 689.53,423.65 692.00,421.54 C700.09,414.68 707.08,407.74 706.49,407.16 C706.18,406.85 701.78,410.81 696.71,415.98 ZM 542.26 399.16 C540.19,398.67 539.82,399.43 540.59,402.52 L 541.29 405.28 L 542.48 402.39 C543.46,400.01 543.42,399.44 542.26,399.16 ZM 669.50 442.00 C667.35,444.20 666.02,445.99 666.55,445.98 C667.41,445.97 674.60,438.00 673.76,438.00 C673.57,438.00 671.65,439.80 669.50,442.00 ZM 461.43 418.57 C460.20,420.91 459.39,422.88 460.07,422.46 C461.98,421.28 459.98,424.24 457.81,425.81 C456.82,426.53 456.00,427.70 456.00,428.41 C456.00,429.13 454.42,431.78 452.50,434.30 C454.42,431.78 456.00,429.05 456.00,428.23 C456.00,427.42 457.80,424.06 460.00,420.76 C460.50,420.01 460.98,419.27 461.43,418.57 ZM 428.50 543.58 C433.60,543.03 440.80,542.37 446.90,541.89 C447.77,541.83 448.64,541.76 449.53,541.70 C426.04,543.71 404.11,546.32 384.75,549.37 C385.66,549.22 386.55,549.07 387.42,548.92 C398.82,547.12 409.00,545.68 419.11,544.51 C421.90,544.26 425.22,543.93 428.50,543.58 ZM 305.58 361.93 C305.89,359.51 305.91,356.92 305.65,354.15 C305.25,349.86 304.41,346.97 303.15,345.59 C302.11,344.44 301.46,342.83 301.70,342.00 C301.76,341.80 301.81,341.62 301.85,341.48 C305.43,347.53 306.67,354.99 305.58,361.93 ZM 446.96 626.97 C450.51,626.69 454.87,626.36 460.50,625.93 C465.86,625.52 474.28,625.20 484.17,624.98 C473.83,625.22 460.57,625.93 446.96,626.97 ZM 252.00 346.47 C250.41,352.58 250.45,359.84 252.47,366.28 C250.26,359.25 250.14,352.47 252.00,346.47 ZM 696.56 561.78 C696.56,561.72 696.57,561.63 696.59,561.52 C699.32,562.37 701.79,563.21 703.99,564.05 C702.02,563.46 699.58,562.71 696.56,561.78 ZM 726.17 375.78 L 726.13 375.75 C721.75,371.59 719.73,368.35 718.94,363.01 C719.34,365.11 719.87,367.03 720.48,368.32 C721.40,370.25 723.88,373.49 726.17,375.78 ZM 434.30 461.00 C435.00,460.17 437.36,456.80 439.53,453.50 C437.36,456.80 435.01,460.17 434.31,461.00 C433.61,461.83 430.94,465.20 428.36,468.50 C426.16,471.32 422.96,475.20 420.67,477.82 C423.02,475.00 425.49,471.98 427.76,469.12 C430.65,465.48 433.59,461.83 434.30,461.00 ZM 384.34 636.15 C396.68,633.45 408.93,631.25 419.76,629.83 C412.20,630.84 402.97,632.41 393.79,634.22 C390.59,634.84 387.43,635.48 384.34,636.15 ZM 650.56 624.63 C654.22,625.47 657.79,626.35 661.23,627.25 C664.06,628.02 666.64,628.75 668.64,629.38 C668.92,629.47 669.20,629.55 669.47,629.64 C663.42,627.87 657.02,626.18 650.56,624.63 ZM 613.33 638.13 C615.93,638.42 618.48,638.72 620.96,639.04 C621.75,639.15 622.60,639.26 623.50,639.38 C627.86,639.95 633.66,640.86 639.16,641.82 C631.11,640.46 622.33,639.20 613.33,638.13 ZM 625.90 632.39 C620.88,631.51 616.22,630.79 612.50,630.38 C618.90,631.10 626.07,632.26 633.34,633.68 C632.00,633.43 630.72,633.19 629.50,632.98 C628.22,632.76 627.02,632.56 625.90,632.39 ZM 710.75 565.91 C711.72,565.83 712.43,565.46 712.88,564.79 C712.70,565.41 712.56,565.77 712.47,565.86 C712.26,566.07 711.90,566.14 710.75,565.91 ZM 687.40 559.08 C691.75,560.22 695.00,561.16 696.12,561.64 C695.57,561.48 695.01,561.30 694.44,561.13 C692.19,560.43 689.84,559.75 687.40,559.08 ZM 371.03 645.19 C372.60,644.84 374.20,644.50 375.82,644.16 L 375.83 644.16 C382.33,642.86 389.42,641.65 396.99,640.54 C387.69,641.92 378.99,643.47 371.03,645.19 ZM 400.79 619.81 C402.29,619.54 403.77,619.28 405.24,619.02 L 405.25 619.02 C408.21,618.54 411.21,618.09 414.24,617.66 C409.86,618.31 405.31,619.04 400.79,619.81 ZM 676.81 631.87 C677.51,632.07 678.11,632.24 678.61,632.38 C680.67,633.06 682.64,633.75 684.53,634.46 C682.08,633.59 679.50,632.72 676.81,631.87 ZM 696.38 576.25 C694.95,575.88 693.23,575.35 692.20,574.93 C692.16,574.92 692.13,574.90 692.09,574.88 C692.38,574.96 692.66,575.05 692.93,575.13 C694.15,575.52 695.30,575.89 696.38,576.25 ZM 522.39 330.78 C522.83,329.87 523.79,329.59 525.86,329.04 C524.06,329.53 522.93,330.09 522.39,330.78 ZM 480.32 302.94 C480.68,305.62 481.29,308.43 482.13,310.71 C481.22,308.24 480.62,305.61 480.32,302.94 ZM 296.58 378.50 C296.61,378.47 296.64,378.45 296.67,378.42 C295.16,380.03 294.61,380.88 294.68,381.68 C294.56,380.85 295.08,380.07 296.58,378.50 ZM 297.31 377.75 C297.32,377.74 297.33,377.73 297.33,377.73 C297.66,377.40 298.01,377.04 298.41,376.65 C298.01,377.05 297.64,377.41 297.31,377.75 ZM 526.78 328.75 C526.48,328.86 526.19,328.95 525.91,329.02 C526.19,328.95 526.49,328.85 526.78,328.75 Z" fill="rgb(234,222,128)"/>
<path d="M 0.00 512.00 L 0.00 0.00 L 512.00 0.00 L 1024.00 0.00 L 1024.00 512.00 L 1024.00 1024.00 L 512.00 1024.00 L 0.00 1024.00 L 0.00 512.00 ZM 564.50 766.92 C576.62,766.06 596.19,764.12 609.50,762.44 C636.41,759.06 647.83,757.13 659.50,754.02 C663.35,752.99 669.65,751.37 673.50,750.42 C686.95,747.11 705.00,740.43 707.64,737.79 C709.28,736.15 709.17,734.98 705.16,711.00 C703.05,698.39 701.09,690.84 699.69,689.87 C698.53,689.08 695.07,689.93 692.59,691.61 C691.54,692.33 688.16,693.67 685.09,694.59 C682.01,695.51 675.02,697.83 669.55,699.75 C663.46,701.89 655.50,703.76 649.05,704.59 C636.90,706.14 624.88,708.34 623.35,709.28 C622.77,709.64 617.17,710.41 610.90,710.98 C604.63,711.56 594.78,712.67 589.00,713.46 C569.17,716.16 551.45,717.13 521.00,717.19 C483.29,717.26 457.14,716.29 446.00,714.41 C437.15,712.92 427.13,711.65 411.00,709.99 C405.77,709.46 396.10,707.86 389.50,706.44 C382.90,705.03 374.42,703.22 370.66,702.44 C366.90,701.65 363.36,700.72 362.80,700.37 C362.23,700.02 360.35,699.38 358.63,698.94 C349.00,696.48 337.77,692.95 332.50,690.72 C328.37,688.97 326.12,688.49 325.30,689.17 C323.96,690.28 322.04,696.67 319.63,708.00 C315.56,727.15 314.79,732.41 315.66,735.36 C316.87,739.47 343.09,749.22 363.00,752.95 C366.58,753.62 372.20,754.77 375.50,755.51 C423.70,766.29 504.42,771.16 564.50,766.92 ZM 551.00 710.46 C577.60,709.35 608.68,705.13 624.50,700.46 C627.25,699.65 632.65,698.32 636.50,697.51 C644.53,695.82 653.01,692.75 657.82,689.79 C663.44,686.34 660.46,685.61 647.84,687.37 C627.30,690.23 622.55,690.95 617.67,691.97 C599.74,695.69 553.76,699.00 520.00,698.99 C486.03,698.99 419.44,694.38 404.00,690.97 C399.94,690.07 394.89,689.25 374.00,686.07 C363.64,684.50 359.00,684.20 358.46,685.07 C357.77,686.18 369.20,692.36 376.50,694.81 C389.62,699.23 402.65,703.10 405.50,703.44 C407.15,703.64 411.65,704.10 415.50,704.47 C419.35,704.85 427.45,705.98 433.50,707.00 C458.42,711.18 502.44,712.47 551.00,710.46 ZM 583.50 675.01 C605.04,672.69 628.99,669.06 642.64,666.04 C659.11,662.41 674.00,657.34 674.00,655.38 C674.00,653.46 672.56,653.60 658.70,656.89 C651.99,658.48 643.12,660.33 639.00,661.01 C634.88,661.68 631.05,662.56 630.50,662.96 C629.01,664.05 602.42,666.84 573.50,668.94 C537.06,671.58 464.92,670.86 435.50,667.57 C394.72,663.00 393.63,662.84 373.12,658.56 C358.14,655.44 350.00,653.14 350.00,652.04 C350.00,650.67 356.90,648.35 369.01,645.64 C422.89,633.58 511.87,629.74 592.00,636.02 C628.69,638.89 668.32,646.17 676.71,651.57 C677.93,652.36 679.57,653.00 680.34,653.00 C682.30,653.00 684.04,650.68 683.15,649.25 C680.08,644.27 639.41,633.41 612.50,630.38 C609.75,630.07 606.38,629.66 605.00,629.47 C603.62,629.28 598.45,628.68 593.50,628.14 C588.55,627.60 579.33,626.56 573.00,625.84 C558.24,624.16 482.86,624.22 460.50,625.93 C437.31,627.70 435.83,627.84 422.16,629.52 C406.50,631.45 387.50,635.11 369.50,639.64 C349.62,644.66 344.10,646.76 343.39,649.58 C342.56,652.88 343.36,653.69 350.67,657.00 C365.57,663.76 404.09,670.90 445.77,674.63 C480.50,677.73 556.33,677.95 583.50,675.01 ZM 337.05 635.66 C341.65,633.69 366.93,626.64 378.50,624.10 C394.05,620.69 415.97,617.09 430.50,615.56 C463.98,612.04 472.86,611.62 514.00,611.57 C562.16,611.52 575.53,612.37 616.50,618.04 C639.11,621.18 668.65,628.47 687.93,635.69 C696.31,638.83 697.49,639.05 698.51,637.66 C699.14,636.80 701.31,627.63 703.33,617.30 C709.84,584.01 710.04,582.75 708.95,581.44 C708.03,580.34 702.64,578.21 692.93,575.13 C690.96,574.51 688.19,574.00 686.76,574.00 C685.33,574.00 684.02,573.61 683.83,573.13 C683.10,571.22 644.61,563.17 632.00,562.30 C627.88,562.02 624.05,561.44 623.50,561.02 C622.53,560.27 617.39,559.51 606.08,558.43 C603.11,558.15 600.35,557.72 599.96,557.47 C598.30,556.45 551.26,553.87 524.50,553.34 C488.36,552.62 449.92,554.66 417.00,559.07 C412.88,559.62 407.48,560.26 405.00,560.49 C395.73,561.35 390.41,562.11 387.50,563.01 C385.85,563.52 382.92,564.16 381.00,564.43 C379.08,564.70 375.48,565.35 373.01,565.87 C370.54,566.39 368.16,566.60 367.71,566.32 C367.27,566.05 366.37,566.25 365.71,566.76 C364.62,567.61 354.63,570.00 350.25,570.46 C349.29,570.56 347.83,570.91 347.00,571.23 C342.76,572.90 338.42,574.00 336.05,574.00 C334.59,574.00 332.97,574.37 332.45,574.83 C331.93,575.28 329.48,576.27 327.00,577.02 C322.37,578.44 318.00,580.74 316.84,582.39 C316.48,582.91 316.40,584.27 316.67,585.41 C317.21,587.70 317.62,589.93 318.36,594.50 C318.63,596.15 319.14,598.62 319.50,600.00 C319.86,601.38 320.33,603.40 320.53,604.50 C320.74,605.60 321.56,609.20 322.36,612.50 C323.16,615.80 324.05,620.08 324.34,622.00 C324.63,623.92 325.36,627.15 325.96,629.17 C326.56,631.19 326.94,633.22 326.81,633.67 C326.68,634.13 327.13,635.50 327.81,636.72 C329.12,639.08 329.01,639.09 337.05,635.66 ZM 323.38 563.43 C350.21,553.74 400.75,545.39 460.00,540.85 C481.53,539.20 547.51,539.18 568.00,540.82 C620.70,545.02 665.60,552.23 694.44,561.13 C710.17,565.98 711.90,566.43 712.47,565.86 C714.02,564.32 727.94,486.60 737.98,423.50 C739.11,416.35 741.00,404.82 742.18,397.87 L 744.31 385.24 L 749.10 384.67 C757.65,383.66 766.27,377.76 769.94,370.40 C771.18,367.91 772.69,363.01 773.29,359.51 C774.32,353.51 774.21,352.69 771.44,345.43 C769.74,340.95 767.58,337.11 766.31,336.28 C764.22,334.90 764.08,335.02 762.90,339.17 C761.23,345.07 759.75,346.00 752.06,346.00 C745.10,345.99 740.49,344.07 736.94,339.68 C734.75,336.97 735.69,334.96 740.76,331.52 C742.88,330.08 743.83,328.94 742.98,328.85 C742.17,328.77 743.30,328.37 745.50,327.96 C749.03,327.32 748.85,327.26 743.94,327.50 C734.36,327.97 725.33,333.99 720.27,343.26 C718.96,345.68 718.51,348.79 718.50,355.50 C718.50,365.93 720.01,369.95 726.13,375.75 C728.26,377.76 730.00,380.12 730.00,380.98 C730.00,381.84 726.65,385.88 722.55,389.95 C718.45,394.02 715.31,397.69 715.57,398.11 C716.14,399.04 714.03,400.44 712.00,400.47 C711.17,400.49 710.36,401.52 710.18,402.76 C710.00,404.02 709.40,404.74 708.82,404.39 C707.48,403.56 687.03,423.91 687.63,425.48 C687.88,426.14 685.19,429.22 681.64,432.34 C674.74,438.40 672.15,439.74 676.02,435.25 C677.33,433.74 675.04,435.74 670.95,439.70 C666.85,443.66 662.15,448.11 660.50,449.58 C658.85,451.05 658.40,451.63 659.50,450.87 C661.33,449.61 661.39,449.64 660.14,451.24 C659.39,452.20 658.44,452.77 658.04,452.52 C657.64,452.28 656.00,453.34 654.40,454.89 C645.20,463.84 616.55,488.99 615.61,488.94 C615.00,488.91 612.25,486.20 609.50,482.92 C606.75,479.64 602.08,474.16 599.13,470.73 C596.18,467.30 591.77,461.58 589.35,458.00 C586.92,454.42 583.13,449.02 580.91,446.00 C575.62,438.77 561.02,414.35 553.59,400.28 C550.33,394.12 547.30,389.31 546.85,389.59 C546.39,389.87 546.32,389.33 546.68,388.39 C547.16,387.13 546.99,386.89 546.02,387.49 C545.15,388.03 544.93,387.92 545.39,387.18 C546.20,385.87 543.69,380.55 540.63,377.09 C539.46,375.76 539.07,375.00 539.76,375.40 C540.75,375.98 540.77,375.60 539.86,373.60 C539.23,372.20 538.25,371.34 537.70,371.69 C537.11,372.05 537.00,371.81 537.44,371.10 C537.87,370.41 536.22,365.68 533.65,360.19 C526.91,345.82 522.00,333.88 522.00,331.86 C522.00,330.63 523.22,329.75 525.91,329.03 C531.38,327.55 539.33,320.06 542.67,313.23 C547.93,302.50 546.06,287.53 538.25,277.83 C536.19,275.27 533.38,272.67 532.00,272.07 C529.58,271.00 529.59,271.04 532.33,273.50 C534.66,275.59 535.04,276.55 534.49,279.03 C533.74,282.48 532.58,283.19 524.80,284.98 C518.01,286.55 508.19,284.97 505.38,281.87 C504.29,280.66 502.33,280.00 499.85,280.00 C496.71,280.00 496.00,279.64 496.00,278.06 C496.00,276.99 496.45,275.84 497.00,275.50 C498.62,274.50 498.15,272.18 496.25,271.78 C494.87,271.48 495.13,271.06 497.50,269.74 C499.15,268.83 499.97,268.06 499.33,268.04 C497.40,267.97 489.78,274.26 486.36,278.75 C480.02,287.07 478.27,300.24 482.13,310.71 C484.88,318.18 491.84,325.16 499.04,327.68 C501.90,328.68 504.43,330.00 504.67,330.61 C505.07,331.63 502.09,338.13 484.74,374.00 C481.41,380.88 475.39,392.48 471.35,399.78 C467.31,407.09 464.00,413.45 464.00,413.92 C464.00,414.39 462.20,417.47 460.00,420.76 C457.80,424.06 456.00,427.42 456.00,428.23 C456.00,429.05 454.42,431.78 452.50,434.30 C450.58,436.82 449.00,439.34 449.00,439.91 C449.00,440.47 447.76,442.41 446.24,444.22 C444.72,446.02 441.70,450.20 439.53,453.50 C437.36,456.80 435.00,460.17 434.30,461.00 C433.59,461.83 430.65,465.48 427.76,469.12 C420.23,478.58 410.60,489.83 409.93,489.92 C407.50,490.26 300.58,390.55 295.32,383.04 C294.09,381.28 294.38,380.67 298.43,376.63 C308.57,366.49 308.46,347.29 298.20,336.67 C292.35,330.61 286.83,327.84 279.46,327.24 C271.24,326.58 265.56,328.64 259.47,334.48 C251.14,342.46 248.60,353.97 252.47,366.28 C255.52,375.95 265.52,383.77 276.15,384.79 C280.28,385.19 281.00,385.57 281.00,387.38 C280.99,390.80 284.12,410.32 285.02,412.50 C286.20,415.34 293.14,458.19 292.53,458.81 C292.25,459.09 292.46,459.85 293.01,460.51 C293.55,461.16 294.11,464.01 294.25,466.84 C294.39,469.67 294.79,471.99 295.15,471.99 C295.81,472.00 297.55,482.98 297.41,486.25 C297.37,487.21 297.67,488.00 298.07,488.00 C298.47,488.00 299.17,490.81 299.62,494.25 C300.07,497.69 300.49,500.95 300.56,501.50 C300.63,502.05 300.97,503.17 301.31,504.00 C301.65,504.83 302.11,507.30 302.33,509.50 C302.55,511.70 303.07,514.31 303.49,515.29 C303.90,516.28 303.97,517.36 303.63,517.70 C303.29,518.04 303.51,518.91 304.12,519.65 C304.73,520.38 304.97,521.63 304.67,522.42 C304.36,523.22 304.52,524.01 305.01,524.19 C305.50,524.36 306.08,526.57 306.30,529.09 C306.51,531.62 306.98,534.16 307.34,534.74 C307.69,535.31 308.14,537.57 308.34,539.74 C308.54,541.92 309.03,544.24 309.44,544.90 C309.84,545.56 309.93,546.73 309.63,547.52 C309.33,548.30 309.55,549.22 310.11,549.57 C310.68,549.92 310.90,550.82 310.61,551.57 C310.32,552.32 310.46,553.16 310.91,553.44 C311.36,553.72 311.98,555.42 312.28,557.23 C312.96,561.31 314.74,566.00 315.60,566.00 C315.96,566.00 319.46,564.84 323.38,563.43 ZM 506.74 755.90 C504.96,754.20 500.91,750.54 497.75,747.78 C494.59,745.02 492.00,742.25 492.00,741.62 C492.00,741.00 494.56,738.24 497.68,735.49 C500.80,732.75 504.87,729.08 506.72,727.34 C508.57,725.61 510.77,724.29 511.62,724.41 C513.68,724.72 532.18,741.96 531.77,743.20 C531.00,745.50 514.35,758.96 512.24,758.98 C511.00,758.99 508.52,757.61 506.74,755.90 ZM 411.19 750.32 C410.46,750.03 407.49,746.90 404.58,743.37 C398.26,735.72 398.18,733.23 404.13,729.30 C406.26,727.89 408.00,726.44 408.00,726.08 C408.00,725.72 409.34,724.64 410.98,723.67 C413.17,722.38 414.46,722.17 415.82,722.90 C417.72,723.92 423.32,730.42 426.40,735.17 C428.10,737.80 428.08,737.88 424.81,741.17 C420.03,745.98 414.05,751.01 413.22,750.92 C412.82,750.88 411.91,750.61 411.19,750.32 ZM 605.36 746.64 C602.14,744.24 598.43,741.11 597.11,739.68 L 594.72 737.08 L 598.36 733.44 C600.36,731.44 602.00,729.57 602.00,729.29 C602.00,728.45 607.15,722.56 608.64,721.69 C609.59,721.14 611.86,722.41 615.74,725.69 C618.87,728.34 622.46,731.37 623.72,732.43 C624.97,733.49 626.00,734.94 626.00,735.65 C626.00,737.50 614.18,751.00 612.56,751.00 C611.82,751.00 608.58,749.04 605.36,746.64 ZM 405.30 600.93 L 395.10 592.89 L 403.23 582.20 C407.70,576.31 411.72,571.50 412.15,571.50 C412.83,571.50 417.07,574.95 430.77,586.66 L 433.30 588.82 L 430.90 592.01 C429.58,593.76 425.58,598.29 422.00,602.08 L 415.50 608.96 L 405.30 600.93 ZM 601.09 599.04 C596.55,594.07 592.98,589.57 593.17,589.03 C593.68,587.53 611.36,572.02 612.57,572.01 C613.68,572.00 628.69,589.93 629.47,592.20 C629.90,593.46 613.33,607.19 610.65,607.79 C609.94,607.95 605.64,604.01 601.09,599.04 ZM 507.44 601.90 C505.82,600.20 500.79,595.85 496.25,592.24 C491.71,588.63 488.00,585.45 488.00,585.18 C488.00,583.87 510.60,562.00 511.95,562.01 C512.80,562.01 518.67,566.94 525.00,572.97 L 536.50 583.93 L 532.50 587.63 C517.24,601.71 513.28,605.00 511.61,605.00 C510.93,605.00 509.05,603.61 507.44,601.90 ZM 669.50 442.00 C671.65,439.80 673.57,438.00 673.76,438.00 C674.60,438.00 667.41,445.97 666.55,445.98 C666.02,445.99 667.35,444.20 669.50,442.00 ZM 696.71 415.98 C701.78,410.81 706.18,406.85 706.49,407.16 C707.08,407.74 700.09,414.68 692.00,421.54 C689.53,423.65 691.65,421.14 696.71,415.98 Z" fill="rgb(254,254,254)"/>
</g>
</svg>